<mxfile host="65bd71144e">
    <diagram name="Page-1" id="EmKiFh5BCGxzD36F_mmm">
        <mxGraphModel dx="1813" dy="1596" grid="1" gridSize="10" guides="1" tooltips="1" connect="1" arrows="1" fold="1" page="1" pageScale="1" pageWidth="827" pageHeight="1169" math="0" shadow="0">
            <root>
                <mxCell id="0"/>
                <mxCell id="1" parent="0"/>
                <mxCell id="oyE8q_QoNlwKAlWyIroU-1" value="" style="childLayout=tableLayout;recursiveResize=0;shadow=0;strokeColor=#E6E6E6;align=center;" parent="1" vertex="1">
                    <mxGeometry x="-586" y="-89" width="841" height="525" as="geometry"/>
                </mxCell>
                <mxCell id="oyE8q_QoNlwKAlWyIroU-2" value="" style="shape=tableRow;horizontal=0;startSize=0;swimlaneHead=0;swimlaneBody=0;top=0;left=0;bottom=0;right=0;dropTarget=0;collapsible=0;recursiveResize=0;expand=0;fontStyle=0;fillColor=none;strokeColor=inherit;" parent="oyE8q_QoNlwKAlWyIroU-1" vertex="1">
                    <mxGeometry width="841" height="44" as="geometry"/>
                </mxCell>
                <mxCell id="oyE8q_QoNlwKAlWyIroU-3" value="&lt;span style=&quot;white-space: pre;&quot;&gt;&#9;&lt;/span&gt;STEP" style="connectable=0;recursiveResize=0;strokeColor=inherit;fillColor=none;align=left;whiteSpace=wrap;html=1;fontStyle=1" parent="oyE8q_QoNlwKAlWyIroU-2" vertex="1">
                    <mxGeometry width="480" height="44" as="geometry">
                        <mxRectangle width="480" height="44" as="alternateBounds"/>
                    </mxGeometry>
                </mxCell>
                <mxCell id="oyE8q_QoNlwKAlWyIroU-4" value="&lt;span style=&quot;white-space: pre;&quot;&gt;&#9;&lt;/span&gt;COST CALCULATION" style="connectable=0;recursiveResize=0;strokeColor=inherit;fillColor=none;align=left;whiteSpace=wrap;html=1;fontStyle=1" parent="oyE8q_QoNlwKAlWyIroU-2" vertex="1">
                    <mxGeometry x="480" width="200" height="44" as="geometry">
                        <mxRectangle width="200" height="44" as="alternateBounds"/>
                    </mxGeometry>
                </mxCell>
                <mxCell id="oyE8q_QoNlwKAlWyIroU-5" value="&lt;span style=&quot;white-space: pre;&quot;&gt;&#9;&lt;/span&gt;STEP COST" style="connectable=0;recursiveResize=0;strokeColor=inherit;fillColor=none;align=left;whiteSpace=wrap;html=1;fontStyle=1" parent="oyE8q_QoNlwKAlWyIroU-2" vertex="1">
                    <mxGeometry x="680" width="161" height="44" as="geometry">
                        <mxRectangle width="161" height="44" as="alternateBounds"/>
                    </mxGeometry>
                </mxCell>
                <mxCell id="oyE8q_QoNlwKAlWyIroU-6" style="shape=tableRow;horizontal=0;startSize=0;swimlaneHead=0;swimlaneBody=0;top=0;left=0;bottom=0;right=0;dropTarget=0;collapsible=0;recursiveResize=0;expand=0;fontStyle=0;fillColor=none;strokeColor=inherit;align=left;" parent="oyE8q_QoNlwKAlWyIroU-1" vertex="1">
                    <mxGeometry y="44" width="841" height="41" as="geometry"/>
                </mxCell>
                <mxCell id="oyE8q_QoNlwKAlWyIroU-7" value="&lt;span style=&quot;white-space: pre;&quot;&gt;&#9;&lt;/span&gt;1 USER opens check learning plot window&amp;nbsp;" style="connectable=0;recursiveResize=0;strokeColor=inherit;fillColor=none;align=left;whiteSpace=wrap;html=1;" parent="oyE8q_QoNlwKAlWyIroU-6" vertex="1">
                    <mxGeometry width="480" height="41" as="geometry">
                        <mxRectangle width="480" height="41" as="alternateBounds"/>
                    </mxGeometry>
                </mxCell>
                <mxCell id="oyE8q_QoNlwKAlWyIroU-8" value="1 x 1 x 2.5" style="connectable=0;recursiveResize=0;strokeColor=inherit;fillColor=none;align=center;whiteSpace=wrap;html=1;" parent="oyE8q_QoNlwKAlWyIroU-6" vertex="1">
                    <mxGeometry x="480" width="200" height="41" as="geometry">
                        <mxRectangle width="200" height="41" as="alternateBounds"/>
                    </mxGeometry>
                </mxCell>
                <mxCell id="oyE8q_QoNlwKAlWyIroU-9" value="2.5" style="connectable=0;recursiveResize=0;strokeColor=inherit;fillColor=none;align=center;whiteSpace=wrap;html=1;" parent="oyE8q_QoNlwKAlWyIroU-6" vertex="1">
                    <mxGeometry x="680" width="161" height="41" as="geometry">
                        <mxRectangle width="161" height="41" as="alternateBounds"/>
                    </mxGeometry>
                </mxCell>
                <mxCell id="oyE8q_QoNlwKAlWyIroU-10" style="shape=tableRow;horizontal=0;startSize=0;swimlaneHead=0;swimlaneBody=0;top=0;left=0;bottom=0;right=0;dropTarget=0;collapsible=0;recursiveResize=0;expand=0;fontStyle=0;fillColor=none;strokeColor=inherit;" parent="oyE8q_QoNlwKAlWyIroU-1" vertex="1">
                    <mxGeometry y="85" width="841" height="44" as="geometry"/>
                </mxCell>
                <mxCell id="oyE8q_QoNlwKAlWyIroU-11" value="&lt;span style=&quot;white-space: pre;&quot;&gt;&#9;&lt;/span&gt;&lt;font style=&quot;font-size: 11px;&quot;&gt;2 SYSTEM shows the learning plot and #iterations &quot;FINE&quot; &quot;ENLARGE&quot; &quot;REDUCE&quot; buttons&lt;/font&gt;" style="connectable=0;recursiveResize=0;strokeColor=inherit;fillColor=none;align=left;whiteSpace=wrap;html=1;" parent="oyE8q_QoNlwKAlWyIroU-10" vertex="1">
                    <mxGeometry width="480" height="44" as="geometry">
                        <mxRectangle width="480" height="44" as="alternateBounds"/>
                    </mxGeometry>
                </mxCell>
                <mxCell id="oyE8q_QoNlwKAlWyIroU-12" value="" style="connectable=0;recursiveResize=0;strokeColor=inherit;fillColor=none;align=left;whiteSpace=wrap;html=1;" parent="oyE8q_QoNlwKAlWyIroU-10" vertex="1">
                    <mxGeometry x="480" width="200" height="44" as="geometry">
                        <mxRectangle width="200" height="44" as="alternateBounds"/>
                    </mxGeometry>
                </mxCell>
                <mxCell id="oyE8q_QoNlwKAlWyIroU-13" value="" style="connectable=0;recursiveResize=0;strokeColor=inherit;fillColor=none;align=left;whiteSpace=wrap;html=1;" parent="oyE8q_QoNlwKAlWyIroU-10" vertex="1">
                    <mxGeometry x="680" width="161" height="44" as="geometry">
                        <mxRectangle width="161" height="44" as="alternateBounds"/>
                    </mxGeometry>
                </mxCell>
                <mxCell id="oyE8q_QoNlwKAlWyIroU-14" style="shape=tableRow;horizontal=0;startSize=0;swimlaneHead=0;swimlaneBody=0;top=0;left=0;bottom=0;right=0;dropTarget=0;collapsible=0;recursiveResize=0;expand=0;fontStyle=0;fillColor=none;strokeColor=inherit;" parent="oyE8q_QoNlwKAlWyIroU-1" vertex="1">
                    <mxGeometry y="129" width="841" height="44" as="geometry"/>
                </mxCell>
                <mxCell id="oyE8q_QoNlwKAlWyIroU-15" value="&lt;span style=&quot;&quot;&gt;&lt;span style=&quot;white-space: pre;&quot;&gt;&amp;nbsp;&lt;span style=&quot;white-space: pre;&quot;&gt;&#9;&lt;/span&gt;&lt;/span&gt;&lt;/span&gt;3 USER checks the learning plot" style="connectable=0;recursiveResize=0;strokeColor=inherit;fillColor=none;align=left;whiteSpace=wrap;html=1;" parent="oyE8q_QoNlwKAlWyIroU-14" vertex="1">
                    <mxGeometry width="480" height="44" as="geometry">
                        <mxRectangle width="480" height="44" as="alternateBounds"/>
                    </mxGeometry>
                </mxCell>
                <mxCell id="oyE8q_QoNlwKAlWyIroU-16" value="1 x 3 x 2.5" style="connectable=0;recursiveResize=0;strokeColor=inherit;fillColor=none;align=center;whiteSpace=wrap;html=1;" parent="oyE8q_QoNlwKAlWyIroU-14" vertex="1">
                    <mxGeometry x="480" width="200" height="44" as="geometry">
                        <mxRectangle width="200" height="44" as="alternateBounds"/>
                    </mxGeometry>
                </mxCell>
                <mxCell id="oyE8q_QoNlwKAlWyIroU-17" value="7.5" style="connectable=0;recursiveResize=0;strokeColor=inherit;fillColor=none;align=center;whiteSpace=wrap;html=1;" parent="oyE8q_QoNlwKAlWyIroU-14" vertex="1">
                    <mxGeometry x="680" width="161" height="44" as="geometry">
                        <mxRectangle width="161" height="44" as="alternateBounds"/>
                    </mxGeometry>
                </mxCell>
                <mxCell id="oyE8q_QoNlwKAlWyIroU-18" style="shape=tableRow;horizontal=0;startSize=0;swimlaneHead=0;swimlaneBody=0;top=0;left=0;bottom=0;right=0;dropTarget=0;collapsible=0;recursiveResize=0;expand=0;fontStyle=0;fillColor=none;strokeColor=inherit;" parent="oyE8q_QoNlwKAlWyIroU-1" vertex="1">
                    <mxGeometry y="173" width="841" height="44" as="geometry"/>
                </mxCell>
                <mxCell id="oyE8q_QoNlwKAlWyIroU-19" value="&lt;span style=&quot;white-space: pre;&quot;&gt;&#9;&lt;/span&gt;3.1 IF the learning plot is good" style="connectable=0;recursiveResize=0;strokeColor=inherit;fillColor=none;align=left;whiteSpace=wrap;html=1;" parent="oyE8q_QoNlwKAlWyIroU-18" vertex="1">
                    <mxGeometry width="480" height="44" as="geometry">
                        <mxRectangle width="480" height="44" as="alternateBounds"/>
                    </mxGeometry>
                </mxCell>
                <mxCell id="oyE8q_QoNlwKAlWyIroU-20" value=".2" style="connectable=0;recursiveResize=0;strokeColor=inherit;fillColor=none;align=center;whiteSpace=wrap;html=1;" parent="oyE8q_QoNlwKAlWyIroU-18" vertex="1">
                    <mxGeometry x="480" width="200" height="44" as="geometry">
                        <mxRectangle width="200" height="44" as="alternateBounds"/>
                    </mxGeometry>
                </mxCell>
                <mxCell id="oyE8q_QoNlwKAlWyIroU-21" style="connectable=0;recursiveResize=0;strokeColor=inherit;fillColor=none;align=left;whiteSpace=wrap;html=1;" parent="oyE8q_QoNlwKAlWyIroU-18" vertex="1">
                    <mxGeometry x="680" width="161" height="44" as="geometry">
                        <mxRectangle width="161" height="44" as="alternateBounds"/>
                    </mxGeometry>
                </mxCell>
                <mxCell id="oyE8q_QoNlwKAlWyIroU-26" style="shape=tableRow;horizontal=0;startSize=0;swimlaneHead=0;swimlaneBody=0;top=0;left=0;bottom=0;right=0;dropTarget=0;collapsible=0;recursiveResize=0;expand=0;fontStyle=0;fillColor=none;strokeColor=inherit;" parent="oyE8q_QoNlwKAlWyIroU-1" vertex="1">
                    <mxGeometry y="217" width="841" height="44" as="geometry"/>
                </mxCell>
                <mxCell id="oyE8q_QoNlwKAlWyIroU-27" value="&lt;span style=&quot;&quot;&gt;&lt;span style=&quot;white-space: pre;&quot;&gt;&amp;nbsp;&amp;nbsp;&amp;nbsp;&amp;nbsp;&lt;span style=&quot;white-space: pre;&quot;&gt;&#9;&lt;/span&gt;&lt;/span&gt;&lt;/span&gt;3.1.1 USER clicks on the &quot;#ITERATIONS FINE&quot; button" style="connectable=0;recursiveResize=0;strokeColor=inherit;fillColor=none;align=left;whiteSpace=wrap;html=1;" parent="oyE8q_QoNlwKAlWyIroU-26" vertex="1">
                    <mxGeometry width="480" height="44" as="geometry">
                        <mxRectangle width="480" height="44" as="alternateBounds"/>
                    </mxGeometry>
                </mxCell>
                <mxCell id="oyE8q_QoNlwKAlWyIroU-28" value=".2 x 1 x 2.5" style="connectable=0;recursiveResize=0;strokeColor=inherit;fillColor=none;align=center;whiteSpace=wrap;html=1;" parent="oyE8q_QoNlwKAlWyIroU-26" vertex="1">
                    <mxGeometry x="480" width="200" height="44" as="geometry">
                        <mxRectangle width="200" height="44" as="alternateBounds"/>
                    </mxGeometry>
                </mxCell>
                <mxCell id="oyE8q_QoNlwKAlWyIroU-29" value="0.5" style="connectable=0;recursiveResize=0;strokeColor=inherit;fillColor=none;align=center;whiteSpace=wrap;html=1;" parent="oyE8q_QoNlwKAlWyIroU-26" vertex="1">
                    <mxGeometry x="680" width="161" height="44" as="geometry">
                        <mxRectangle width="161" height="44" as="alternateBounds"/>
                    </mxGeometry>
                </mxCell>
                <mxCell id="oyE8q_QoNlwKAlWyIroU-30" style="shape=tableRow;horizontal=0;startSize=0;swimlaneHead=0;swimlaneBody=0;top=0;left=0;bottom=0;right=0;dropTarget=0;collapsible=0;recursiveResize=0;expand=0;fontStyle=0;fillColor=none;strokeColor=inherit;" parent="oyE8q_QoNlwKAlWyIroU-1" vertex="1">
                    <mxGeometry y="261" width="841" height="44" as="geometry"/>
                </mxCell>
                <mxCell id="oyE8q_QoNlwKAlWyIroU-31" value="&lt;span style=&quot;&quot;&gt;&#9;&lt;/span&gt;&lt;span style=&quot;white-space: pre;&quot;&gt;&#9;&lt;/span&gt;3.2 ELSE IF the loss is flat for at least the half" style="connectable=0;recursiveResize=0;strokeColor=inherit;fillColor=none;align=left;whiteSpace=wrap;html=1;" parent="oyE8q_QoNlwKAlWyIroU-30" vertex="1">
                    <mxGeometry width="480" height="44" as="geometry">
                        <mxRectangle width="480" height="44" as="alternateBounds"/>
                    </mxGeometry>
                </mxCell>
                <mxCell id="oyE8q_QoNlwKAlWyIroU-32" value=".4" style="connectable=0;recursiveResize=0;strokeColor=inherit;fillColor=none;align=center;whiteSpace=wrap;html=1;" parent="oyE8q_QoNlwKAlWyIroU-30" vertex="1">
                    <mxGeometry x="480" width="200" height="44" as="geometry">
                        <mxRectangle width="200" height="44" as="alternateBounds"/>
                    </mxGeometry>
                </mxCell>
                <mxCell id="oyE8q_QoNlwKAlWyIroU-33" style="connectable=0;recursiveResize=0;strokeColor=inherit;fillColor=none;align=left;whiteSpace=wrap;html=1;" parent="oyE8q_QoNlwKAlWyIroU-30" vertex="1">
                    <mxGeometry x="680" width="161" height="44" as="geometry">
                        <mxRectangle width="161" height="44" as="alternateBounds"/>
                    </mxGeometry>
                </mxCell>
                <mxCell id="E5UNomB5163HNAia4btr-1" style="shape=tableRow;horizontal=0;startSize=0;swimlaneHead=0;swimlaneBody=0;top=0;left=0;bottom=0;right=0;dropTarget=0;collapsible=0;recursiveResize=0;expand=0;fontStyle=0;fillColor=none;strokeColor=inherit;" parent="oyE8q_QoNlwKAlWyIroU-1" vertex="1">
                    <mxGeometry y="305" width="841" height="44" as="geometry"/>
                </mxCell>
                <mxCell id="E5UNomB5163HNAia4btr-2" value="&lt;span style=&quot;&quot;&gt;&lt;span style=&quot;white-space: pre;&quot;&gt;&amp;nbsp;&amp;nbsp;&amp;nbsp;&amp;nbsp;&lt;span style=&quot;white-space: pre;&quot;&gt;&#9;&lt;/span&gt;&lt;/span&gt;&lt;/span&gt;3.2.1 USER clicks on the &quot;#ITERATIONS ENLARGE&quot; button" style="connectable=0;recursiveResize=0;strokeColor=inherit;fillColor=none;align=left;whiteSpace=wrap;html=1;" parent="E5UNomB5163HNAia4btr-1" vertex="1">
                    <mxGeometry width="480" height="44" as="geometry">
                        <mxRectangle width="480" height="44" as="alternateBounds"/>
                    </mxGeometry>
                </mxCell>
                <mxCell id="E5UNomB5163HNAia4btr-3" value=".4 x 1 x 2.5" style="connectable=0;recursiveResize=0;strokeColor=inherit;fillColor=none;align=center;whiteSpace=wrap;html=1;" parent="E5UNomB5163HNAia4btr-1" vertex="1">
                    <mxGeometry x="480" width="200" height="44" as="geometry">
                        <mxRectangle width="200" height="44" as="alternateBounds"/>
                    </mxGeometry>
                </mxCell>
                <mxCell id="E5UNomB5163HNAia4btr-4" value="1" style="connectable=0;recursiveResize=0;strokeColor=inherit;fillColor=none;align=center;whiteSpace=wrap;html=1;" parent="E5UNomB5163HNAia4btr-1" vertex="1">
                    <mxGeometry x="680" width="161" height="44" as="geometry">
                        <mxRectangle width="161" height="44" as="alternateBounds"/>
                    </mxGeometry>
                </mxCell>
                <mxCell id="E5UNomB5163HNAia4btr-5" style="shape=tableRow;horizontal=0;startSize=0;swimlaneHead=0;swimlaneBody=0;top=0;left=0;bottom=0;right=0;dropTarget=0;collapsible=0;recursiveResize=0;expand=0;fontStyle=0;fillColor=none;strokeColor=inherit;" parent="oyE8q_QoNlwKAlWyIroU-1" vertex="1">
                    <mxGeometry y="349" width="841" height="44" as="geometry"/>
                </mxCell>
                <mxCell id="E5UNomB5163HNAia4btr-6" value="&lt;span style=&quot;&quot;&gt;&#9;&lt;/span&gt;&lt;span style=&quot;white-space: pre;&quot;&gt;&#9;&lt;/span&gt;3.3 ELSE IF&amp;nbsp;the loss is not flat at the end of the iterations" style="connectable=0;recursiveResize=0;strokeColor=inherit;fillColor=none;align=left;whiteSpace=wrap;html=1;" parent="E5UNomB5163HNAia4btr-5" vertex="1">
                    <mxGeometry width="480" height="44" as="geometry">
                        <mxRectangle width="480" height="44" as="alternateBounds"/>
                    </mxGeometry>
                </mxCell>
                <mxCell id="E5UNomB5163HNAia4btr-7" value=".4" style="connectable=0;recursiveResize=0;strokeColor=inherit;fillColor=none;align=center;whiteSpace=wrap;html=1;" parent="E5UNomB5163HNAia4btr-5" vertex="1">
                    <mxGeometry x="480" width="200" height="44" as="geometry">
                        <mxRectangle width="200" height="44" as="alternateBounds"/>
                    </mxGeometry>
                </mxCell>
                <mxCell id="E5UNomB5163HNAia4btr-8" style="connectable=0;recursiveResize=0;strokeColor=inherit;fillColor=none;align=center;whiteSpace=wrap;html=1;" parent="E5UNomB5163HNAia4btr-5" vertex="1">
                    <mxGeometry x="680" width="161" height="44" as="geometry">
                        <mxRectangle width="161" height="44" as="alternateBounds"/>
                    </mxGeometry>
                </mxCell>
                <mxCell id="E5UNomB5163HNAia4btr-10" style="shape=tableRow;horizontal=0;startSize=0;swimlaneHead=0;swimlaneBody=0;top=0;left=0;bottom=0;right=0;dropTarget=0;collapsible=0;recursiveResize=0;expand=0;fontStyle=0;fillColor=none;strokeColor=inherit;" parent="oyE8q_QoNlwKAlWyIroU-1" vertex="1">
                    <mxGeometry y="393" width="841" height="44" as="geometry"/>
                </mxCell>
                <mxCell id="E5UNomB5163HNAia4btr-11" value="&lt;span style=&quot;&quot;&gt;&lt;span style=&quot;white-space: pre;&quot;&gt;&amp;nbsp;&amp;nbsp;&amp;nbsp;&amp;nbsp;&lt;span style=&quot;white-space: pre;&quot;&gt;&#9;&lt;/span&gt;&lt;/span&gt;&lt;/span&gt;&lt;span style=&quot;border-color: var(--border-color);&quot;&gt;&lt;/span&gt;3.3.1 USER clicks on the &quot;#ITERATIONS REDUCE&quot; button" style="connectable=0;recursiveResize=0;strokeColor=inherit;fillColor=none;align=left;whiteSpace=wrap;html=1;" parent="E5UNomB5163HNAia4btr-10" vertex="1">
                    <mxGeometry width="480" height="44" as="geometry">
                        <mxRectangle width="480" height="44" as="alternateBounds"/>
                    </mxGeometry>
                </mxCell>
                <mxCell id="E5UNomB5163HNAia4btr-12" value=".4 x 1 x 2.5" style="connectable=0;recursiveResize=0;strokeColor=inherit;fillColor=none;align=center;whiteSpace=wrap;html=1;" parent="E5UNomB5163HNAia4btr-10" vertex="1">
                    <mxGeometry x="480" width="200" height="44" as="geometry">
                        <mxRectangle width="200" height="44" as="alternateBounds"/>
                    </mxGeometry>
                </mxCell>
                <mxCell id="E5UNomB5163HNAia4btr-13" value="1" style="connectable=0;recursiveResize=0;strokeColor=inherit;fillColor=none;align=center;whiteSpace=wrap;html=1;" parent="E5UNomB5163HNAia4btr-10" vertex="1">
                    <mxGeometry x="680" width="161" height="44" as="geometry">
                        <mxRectangle width="161" height="44" as="alternateBounds"/>
                    </mxGeometry>
                </mxCell>
                <mxCell id="oyE8q_QoNlwKAlWyIroU-38" style="shape=tableRow;horizontal=0;startSize=0;swimlaneHead=0;swimlaneBody=0;top=0;left=0;bottom=0;right=0;dropTarget=0;collapsible=0;recursiveResize=0;expand=0;fontStyle=0;fillColor=none;strokeColor=inherit;" parent="oyE8q_QoNlwKAlWyIroU-1" vertex="1">
                    <mxGeometry y="437" width="841" height="44" as="geometry"/>
                </mxCell>
                <mxCell id="oyE8q_QoNlwKAlWyIroU-39" value="&lt;span style=&quot;white-space: pre;&quot;&gt;&#9;&lt;/span&gt;4 USER closes the chek learning plot windows" style="connectable=0;recursiveResize=0;strokeColor=inherit;fillColor=none;align=left;whiteSpace=wrap;html=1;" parent="oyE8q_QoNlwKAlWyIroU-38" vertex="1">
                    <mxGeometry width="480" height="44" as="geometry">
                        <mxRectangle width="480" height="44" as="alternateBounds"/>
                    </mxGeometry>
                </mxCell>
                <mxCell id="oyE8q_QoNlwKAlWyIroU-40" value="1 x 1 x 2.5" style="connectable=0;recursiveResize=0;strokeColor=inherit;fillColor=none;align=center;whiteSpace=wrap;html=1;" parent="oyE8q_QoNlwKAlWyIroU-38" vertex="1">
                    <mxGeometry x="480" width="200" height="44" as="geometry">
                        <mxRectangle width="200" height="44" as="alternateBounds"/>
                    </mxGeometry>
                </mxCell>
                <mxCell id="oyE8q_QoNlwKAlWyIroU-41" value="2.5" style="connectable=0;recursiveResize=0;strokeColor=inherit;fillColor=none;align=center;whiteSpace=wrap;html=1;" parent="oyE8q_QoNlwKAlWyIroU-38" vertex="1">
                    <mxGeometry x="680" width="161" height="44" as="geometry">
                        <mxRectangle width="161" height="44" as="alternateBounds"/>
                    </mxGeometry>
                </mxCell>
                <mxCell id="oyE8q_QoNlwKAlWyIroU-42" style="shape=tableRow;horizontal=0;startSize=0;swimlaneHead=0;swimlaneBody=0;top=0;left=0;bottom=0;right=0;dropTarget=0;collapsible=0;recursiveResize=0;expand=0;fontStyle=0;fillColor=none;strokeColor=inherit;" parent="oyE8q_QoNlwKAlWyIroU-1" vertex="1">
                    <mxGeometry y="481" width="841" height="44" as="geometry"/>
                </mxCell>
                <mxCell id="oyE8q_QoNlwKAlWyIroU-43" value="" style="connectable=0;recursiveResize=0;strokeColor=inherit;fillColor=none;align=left;whiteSpace=wrap;html=1;" parent="oyE8q_QoNlwKAlWyIroU-42" vertex="1">
                    <mxGeometry width="480" height="44" as="geometry">
                        <mxRectangle width="480" height="44" as="alternateBounds"/>
                    </mxGeometry>
                </mxCell>
                <mxCell id="oyE8q_QoNlwKAlWyIroU-44" value="&#9;&lt;span style=&quot;font-weight: 700;&quot;&gt;&lt;span style=&quot;white-space: pre;&quot;&gt;&#9;&lt;/span&gt;HUMAN TASK COST&lt;/span&gt;" style="connectable=0;recursiveResize=0;strokeColor=inherit;fillColor=none;align=left;whiteSpace=wrap;html=1;" parent="oyE8q_QoNlwKAlWyIroU-42" vertex="1">
                    <mxGeometry x="480" width="200" height="44" as="geometry">
                        <mxRectangle width="200" height="44" as="alternateBounds"/>
                    </mxGeometry>
                </mxCell>
                <mxCell id="oyE8q_QoNlwKAlWyIroU-45" value="&lt;b&gt;15&lt;/b&gt;" style="connectable=0;recursiveResize=0;strokeColor=inherit;fillColor=none;align=center;whiteSpace=wrap;html=1;" parent="oyE8q_QoNlwKAlWyIroU-42" vertex="1">
                    <mxGeometry x="680" width="161" height="44" as="geometry">
                        <mxRectangle width="161" height="44" as="alternateBounds"/>
                    </mxGeometry>
                </mxCell>
            </root>
        </mxGraphModel>
    </diagram>
</mxfile>